<svg version="1.1" id="Layer_1" xmlns="http://www.w3.org/2000/svg" xmlns:xlink="http://www.w3.org/1999/xlink" x="0px" y="0px"
	 width="100%" viewBox="0 0 500 500" enable-background="new 0 0 500 500" xml:space="preserve">
<path fill="#FFFFFF" opacity="1.000000" stroke="none" 
	d="
M327.000000,501.000000 
	C218.000031,501.000000 109.500053,501.000000 1.000058,501.000000 
	C1.000039,334.333405 1.000039,167.666794 1.000019,1.000148 
	C167.666565,1.000098 334.333130,1.000098 500.999756,1.000049 
	C500.999847,167.666519 500.999847,334.333038 500.999939,500.999786 
	C443.166656,501.000000 385.333344,501.000000 327.000000,501.000000 
M255.528931,371.949646 
	C255.749649,371.697632 255.970383,371.445618 256.868927,371.062439 
	C261.249237,367.371307 265.629547,363.680176 270.268951,360.673523 
	C275.117981,369.723572 279.355103,379.184570 285.051208,387.665710 
	C288.337494,392.558716 293.584991,396.493958 298.675385,399.712830 
	C303.576202,402.811859 307.669800,400.444977 309.076935,394.695282 
	C309.734650,392.007812 309.822906,389.181000 310.157471,386.511414 
	C312.787292,386.959473 315.228119,387.609741 317.697968,387.750153 
	C323.970825,388.106781 327.179932,384.536743 325.886566,378.415894 
	C325.277161,375.531952 323.845734,372.821686 323.039520,369.534698 
	C323.111359,369.362946 323.183197,369.191193 323.708252,368.893951 
	C323.944214,368.663940 324.073944,368.384583 324.843231,368.061798 
	C328.819702,366.268341 332.796173,364.474884 337.118347,363.314117 
	C340.557281,367.703400 345.118469,370.080292 350.556549,371.076752 
	C366.169739,373.937775 385.807617,364.938354 395.151794,350.630035 
	C401.174866,341.407166 402.133484,332.244476 395.017181,322.471619 
	C394.710358,322.261261 394.403564,322.050903 394.092133,321.943878 
	C394.092133,321.943878 394.169464,321.875214 394.068695,321.196167 
	C390.120575,316.339966 384.756989,314.303253 378.756561,313.963409 
	C362.607483,313.048859 349.489136,319.497559 339.255005,331.569244 
	C333.378632,338.500732 329.856201,346.561859 332.587982,356.487213 
	C330.101166,357.232330 327.614319,357.977448 324.626953,358.170502 
	C314.713959,345.714233 301.260803,339.711365 286.015381,336.292694 
	C286.087158,335.607178 286.158905,334.921692 286.524719,333.603943 
	C297.354309,312.049500 299.080780,289.551331 293.758270,265.554291 
	C287.514313,241.824005 274.706543,222.509644 254.712280,208.192093 
	C248.959396,204.072540 242.746841,200.594925 237.190582,196.313980 
	C248.178696,186.985733 250.315353,175.399368 243.286133,163.499771 
	C233.196854,146.419830 214.012924,143.511719 199.450302,147.462234 
	C196.610519,148.232605 194.121613,150.296417 191.167267,151.931686 
	C196.514969,158.566376 198.788940,165.313507 199.505188,172.803726 
	C199.989197,177.865219 201.336548,182.844147 201.736572,188.556259 
	C194.799088,189.037933 187.776611,188.990997 180.938477,190.090530 
	C146.847733,195.572128 121.487717,213.507446 104.854057,244.668640 
	C103.869492,245.897583 102.884926,247.126526 101.301094,247.974045 
	C94.432129,245.091110 87.762665,241.504135 80.648056,239.488083 
	C69.609840,236.360199 60.612133,243.086304 61.017231,253.461395 
	C61.131081,256.377228 62.128433,259.258575 62.721806,262.161926 
	C47.813652,269.523590 48.070137,278.376831 63.661385,293.848480 
	C53.694618,307.292328 59.161987,321.101105 75.870094,322.854156 
	C83.398415,323.644073 91.205986,321.772491 99.040695,321.838196 
	C101.974518,328.259552 104.908340,334.680878 107.933014,341.768188 
	C108.629128,342.862701 109.325233,343.957245 110.004684,344.998505 
	C110.004684,344.998505 109.955841,344.971588 110.084084,345.599396 
	C110.729935,346.416138 111.375786,347.232880 112.004791,347.998016 
	C112.004791,347.998016 111.956139,347.973938 112.089897,348.603241 
	C112.735176,349.081696 113.380455,349.560150 114.006889,349.992676 
	C114.006889,349.992676 113.968155,349.961548 113.977531,350.587158 
	C114.324387,351.073456 114.671242,351.559784 115.005814,351.997620 
	C115.005814,351.997620 114.960220,351.977142 115.089561,352.632263 
	C116.071030,353.867523 117.052490,355.102783 118.132027,356.605713 
	C118.243362,356.765930 118.388214,356.885651 119.002930,357.396362 
	C119.342430,357.607971 119.681931,357.819550 120.006035,357.996521 
	C120.006035,357.996521 119.969505,357.986542 120.094002,358.656311 
	C122.733940,361.114685 125.373871,363.573059 128.002884,365.995239 
	C128.002884,365.995239 127.966019,365.986847 128.192078,366.540344 
	C128.799026,367.039001 129.405975,367.537659 130.006378,367.999298 
	C130.006378,367.999298 129.970810,367.987213 129.899368,368.776489 
	C127.986588,372.438263 128.900848,375.767303 130.776413,379.569580 
	C125.696548,388.708313 120.726082,397.911102 115.441689,406.929962 
	C114.421936,408.670410 112.369919,410.214905 110.450821,410.935120 
	C106.339310,412.478149 104.829720,415.195679 107.237633,418.919434 
	C108.828941,421.380341 110.957253,423.666382 113.292068,425.443481 
	C122.015831,432.083221 130.840485,438.599548 139.810150,444.901947 
	C142.758453,446.973511 146.135162,448.611664 149.539032,449.819244 
	C155.332489,451.874603 159.999756,449.911713 162.635056,444.887604 
	C165.207047,439.984192 164.334946,435.454834 159.296951,431.794067 
	C149.988876,425.030457 140.426804,418.616394 130.655670,411.838257 
	C135.815430,404.868378 141.421524,397.295624 147.850708,389.805206 
	C150.657639,388.859161 153.453583,387.878540 156.276215,386.981934 
	C157.633392,386.550873 159.131058,385.780518 160.411377,386.012421 
	C170.905319,387.913147 181.372238,389.969055 191.819199,392.114868 
	C193.024170,392.362366 194.647125,393.199799 195.063782,394.189819 
	C196.579269,397.790619 199.299667,399.049072 202.946304,399.947357 
	C205.090240,409.345398 207.069351,418.785797 209.467682,428.118469 
	C210.305267,431.377869 210.216354,433.460175 207.368301,435.854523 
	C203.098907,439.443909 204.221848,443.847595 209.461899,445.752930 
	C211.165222,446.372253 212.999847,446.975769 214.778519,446.987915 
	C228.774490,447.083618 242.797775,447.515656 256.752960,446.752441 
	C261.271149,446.505341 266.265778,443.783783 269.844330,440.770935 
	C273.245850,437.907074 272.386993,433.019226 270.253357,429.139435 
	C267.871216,424.807800 263.591583,423.978241 259.083069,423.971619 
	C247.904648,423.955200 236.726212,423.966248 225.224533,423.966248 
	C224.243652,415.269958 223.144684,405.526855 222.501846,395.327606 
	C224.220078,393.605530 227.065430,392.080261 227.408051,390.117950 
	C228.011383,386.662506 230.278687,386.246277 232.618698,385.068359 
	C237.535355,382.593414 242.287903,379.792419 247.815033,377.122040 
	C249.562088,375.769806 251.309143,374.417572 253.657349,373.131165 
	C254.117554,372.788391 254.577759,372.445618 255.528931,371.949646 
M373.780731,124.793472 
	C371.764618,123.130325 369.748505,121.467171 368.676056,120.582458 
	C375.177002,109.649284 382.518738,99.746971 387.156647,88.708641 
	C390.701202,80.272469 394.497620,75.804924 403.796387,77.785263 
	C404.036194,77.836327 404.353790,77.522102 404.682983,77.353752 
	C404.682983,73.151802 404.682983,68.943893 404.682983,64.284950 
	C391.296448,64.284950 378.236328,64.284950 364.780518,64.284950 
	C364.780518,59.736683 364.780518,55.637081 364.780518,51.480316 
	C360.151764,51.480316 355.939789,51.480316 351.260315,51.480316 
	C351.260315,55.896450 351.260315,59.989223 351.260315,64.623749 
	C337.731903,64.623749 324.668488,64.623749 311.651306,64.623749 
	C311.651306,69.292244 311.651306,73.388435 311.651306,78.062073 
	C333.608765,78.062073 355.265808,78.062073 378.703705,78.062073 
	C371.706238,89.630791 365.448547,99.976402 358.417999,111.599785 
	C353.703125,104.699425 350.131409,99.339119 346.391327,94.099014 
	C345.536896,92.901901 344.163422,91.385368 342.921875,91.280365 
	C338.752197,90.927742 334.534241,91.146370 328.700958,91.146370 
	C335.607452,101.576111 341.702332,110.780228 347.943481,120.205185 
	C338.010040,129.342270 325.836823,135.519608 312.961975,140.330963 
	C314.287689,144.872925 315.434540,148.802124 316.620758,152.866119 
	C332.494598,148.086151 345.922394,139.732986 357.900452,129.706848 
	C364.734528,134.576035 371.171814,139.162506 378.057556,144.068497 
	C379.983734,139.293304 381.566010,135.370743 383.189819,131.345184 
	C380.086212,129.160706 377.244934,127.160896 373.780731,124.793472 
M442.629333,177.849564 
	C445.339752,177.849564 448.050140,177.849564 451.304077,177.849564 
	C442.370789,155.700439 433.753448,134.340195 425.140869,112.978020 
	C421.685944,104.408638 421.684967,104.615730 412.648163,104.368004 
	C409.133820,104.271675 407.829224,105.622162 406.644592,108.653481 
	C400.909943,123.327919 394.913116,137.899780 389.030273,152.516479 
	C385.698151,160.795593 382.406555,169.091034 378.908936,177.849335 
	C383.067078,177.849335 386.718475,178.145248 390.280487,177.709839 
	C391.794861,177.524719 393.759308,176.112183 394.417969,174.731934 
	C396.627136,170.102524 398.203918,165.174057 400.338684,160.504471 
	C400.870575,159.341003 402.571289,157.998535 403.767334,157.966827 
	C412.073944,157.746674 420.389099,157.850647 428.762329,157.850647 
	C430.902985,163.162186 433.179962,168.156418 434.910950,173.333237 
	C436.101227,176.892776 437.978058,178.564636 442.629333,177.849564 
z"/>
<path fill="#80D9F4" opacity="1.000000" stroke="none" 
	d="
M236.745026,196.822998 
	C242.746841,200.594925 248.959396,204.072540 254.712280,208.192093 
	C274.706543,222.509644 287.514313,241.824005 293.331421,265.805725 
	C277.760437,250.893448 261.396393,252.590530 244.433594,263.053040 
	C243.873535,261.532959 243.398895,260.476044 243.090286,259.372650 
	C238.069397,241.421555 220.980392,227.552734 203.162186,226.993149 
	C182.156982,226.333496 164.512070,238.076279 157.870148,256.942169 
	C153.798035,268.508728 155.144485,279.756409 158.918854,290.944611 
	C155.754150,288.955170 152.776337,287.176056 150.260437,284.888855 
	C146.644623,281.601746 143.387543,282.043304 139.666504,284.997925 
	C138.888901,284.994781 138.444534,284.992523 137.874680,284.697998 
	C137.503159,283.609558 137.257141,282.813446 137.272034,281.836487 
	C140.963562,277.516907 139.506195,273.792023 136.835876,269.982635 
	C135.184464,271.241119 133.799957,272.296204 132.415451,273.351288 
	C132.438187,272.765381 132.460907,272.179443 132.483643,271.593536 
	C131.607864,271.096680 130.732101,270.599792 129.559372,269.934479 
	C131.177933,267.638367 130.392776,266.399597 127.166550,265.825439 
	C125.687111,265.562134 124.482315,263.755524 123.152985,262.648773 
	C123.789070,261.903625 124.425148,261.158447 125.175385,260.279572 
	C126.160873,262.016968 126.848434,263.229126 128.163055,265.546783 
	C128.852066,263.214417 129.777054,260.963348 129.521164,260.819977 
	C123.869568,257.653473 128.914764,256.398804 131.329269,254.398605 
	C128.100174,253.166595 125.484253,252.168533 123.282776,251.328613 
	C121.770874,253.571915 120.419403,255.577194 119.067932,257.582458 
	C119.706718,253.191895 110.663658,253.994812 114.777039,247.818726 
	C111.661446,246.602325 108.440964,245.344971 105.220482,244.087616 
	C121.487717,213.507446 146.847733,195.572128 180.938477,190.090530 
	C187.776611,188.990997 194.799088,189.037933 202.330856,188.404083 
	C208.193588,189.418549 213.495728,190.453186 218.721680,191.786392 
	C224.764465,193.328049 230.740189,195.132599 236.745026,196.822998 
z"/>
<path fill="#069BE4" opacity="1.000000" stroke="none" 
	d="
M159.312103,290.927979 
	C155.144485,279.756409 153.798035,268.508728 157.870148,256.942169 
	C164.512070,238.076279 182.156982,226.333496 203.162186,226.993149 
	C220.980392,227.552734 238.069397,241.421555 243.090286,259.372650 
	C243.398895,260.476044 243.873535,261.532959 244.433594,263.053040 
	C261.396393,252.590530 277.760437,250.893448 293.203613,266.176514 
	C299.080780,289.551331 297.354309,312.049500 286.021484,333.921906 
	C277.906128,339.767548 269.645111,342.920532 259.797974,340.922241 
	C255.944702,333.021332 252.907776,325.061432 248.615234,317.848785 
	C242.049606,306.816711 232.282074,302.652985 221.427139,305.131104 
	C214.597504,306.690308 209.892273,311.412354 204.867706,316.220093 
	C201.991318,316.297974 199.515793,316.610809 197.070938,316.451904 
	C186.197128,315.745209 177.004471,311.103394 168.744171,303.776886 
	C165.511398,299.290344 162.411743,295.109161 159.312103,290.927979 
M215.439743,249.902100 
	C207.790863,245.418610 200.291306,246.554123 193.402084,251.262070 
	C182.999298,258.371124 178.733459,268.653442 180.176971,281.026184 
	C181.382843,291.362061 190.228622,298.964905 199.854660,298.663513 
	C209.988586,298.346222 220.002762,290.132538 223.855057,278.978210 
	C227.681046,267.899963 224.785843,257.193268 215.439743,249.902100 
M260.853210,318.480621 
	C267.763245,329.599152 278.204956,330.536133 286.291748,320.202942 
	C294.317139,309.948090 296.371552,298.179749 291.739716,285.884979 
	C286.841949,272.884338 273.740326,270.966400 265.275085,282.010193 
	C256.943146,292.880035 255.675507,305.019562 260.853210,318.480621 
z"/>
<path fill="#069CE5" opacity="1.000000" stroke="none" 
	d="
M98.886856,321.108490 
	C91.205986,321.772491 83.398415,323.644073 75.870094,322.854156 
	C59.161987,321.101105 53.694618,307.292328 63.661385,293.848480 
	C48.070137,278.376831 47.813652,269.523590 62.721806,262.161926 
	C62.128433,259.258575 61.131081,256.377228 61.017231,253.461395 
	C60.612133,243.086304 69.609840,236.360199 80.648056,239.488083 
	C87.762665,241.504135 94.432129,245.091110 101.801254,248.423462 
	C117.237701,258.074066 126.345993,270.745209 126.057533,289.332367 
	C123.350937,305.715424 113.486519,315.453278 98.886856,321.108490 
z"/>
<path fill="#080808" opacity="1.000000" stroke="none" 
	d="
M374.092224,124.977280 
	C377.244934,127.160896 380.086212,129.160706 383.189819,131.345184 
	C381.566010,135.370743 379.983734,139.293304 378.057556,144.068497 
	C371.171814,139.162506 364.734528,134.576035 357.900452,129.706848 
	C345.922394,139.732986 332.494598,148.086151 316.620758,152.866119 
	C315.434540,148.802124 314.287689,144.872925 312.961975,140.330963 
	C325.836823,135.519608 338.010040,129.342270 347.943481,120.205185 
	C341.702332,110.780228 335.607452,101.576111 328.700958,91.146370 
	C334.534241,91.146370 338.752197,90.927742 342.921875,91.280365 
	C344.163422,91.385368 345.536896,92.901901 346.391327,94.099014 
	C350.131409,99.339119 353.703125,104.699425 358.417999,111.599785 
	C365.448547,99.976402 371.706238,89.630791 378.703705,78.062073 
	C355.265808,78.062073 333.608765,78.062073 311.651306,78.062073 
	C311.651306,73.388435 311.651306,69.292244 311.651306,64.623749 
	C324.668488,64.623749 337.731903,64.623749 351.260315,64.623749 
	C351.260315,59.989223 351.260315,55.896450 351.260315,51.480316 
	C355.939789,51.480316 360.151764,51.480316 364.780518,51.480316 
	C364.780518,55.637081 364.780518,59.736683 364.780518,64.284950 
	C378.236328,64.284950 391.296448,64.284950 404.682983,64.284950 
	C404.682983,68.943893 404.682983,73.151802 404.682983,77.353752 
	C404.353790,77.522102 404.036194,77.836327 403.796387,77.785263 
	C394.497620,75.804924 390.701202,80.272469 387.156647,88.708641 
	C382.518738,99.746971 375.177002,109.649284 368.676056,120.582458 
	C369.748505,121.467171 371.764618,123.130325 374.092224,124.977280 
z"/>
<path fill="#7ED8F3" opacity="1.000000" stroke="none" 
	d="
M260.051971,341.197968 
	C269.645111,342.920532 277.906128,339.767548 285.874451,334.238037 
	C286.158905,334.921692 286.087158,335.607178 285.763245,336.870361 
	C280.344025,344.961731 275.176941,352.475372 270.009857,359.989044 
	C265.629547,363.680176 261.249237,367.371307 256.455902,371.054047 
	C256.042877,371.045654 255.897705,370.903503 255.884048,370.567932 
	C251.617416,365.569611 247.364441,360.906830 242.710159,355.804108 
	C237.513260,363.285797 231.096848,367.250854 223.615402,368.471710 
	C217.546539,369.462097 211.203491,368.772491 204.680603,368.649414 
	C191.648621,363.887085 181.508377,356.545135 177.569016,342.975983 
	C179.624496,343.072845 181.334793,343.161835 183.685471,343.284119 
	C184.001938,342.203552 184.654984,339.973724 185.361603,337.560944 
	C183.829437,337.560944 182.261093,337.560944 181.948441,337.560944 
	C179.695251,339.109039 178.300079,340.067627 176.641739,340.749634 
	C176.224854,336.001587 176.071152,331.530121 176.315704,327.037689 
	C177.885956,326.251038 179.057953,325.485321 180.229965,324.719635 
	C179.603165,324.133179 178.976349,323.546722 178.349548,322.960266 
	C177.546768,324.334167 176.744003,325.708038 175.571259,327.066193 
	C174.464096,326.983643 173.726868,326.916779 172.993347,326.439941 
	C173.131073,323.149567 172.947495,321.006226 169.544540,319.348694 
	C166.966721,318.093048 164.834763,314.824005 163.691895,311.974640 
	C161.924454,307.568115 166.260666,306.171875 168.877304,304.082245 
	C177.004471,311.103394 186.197128,315.745209 197.070938,316.451904 
	C199.515793,316.610809 201.991318,316.297974 204.742661,316.560181 
	C200.082748,326.076874 200.826416,335.351074 207.396713,342.659515 
	C212.505920,348.342743 218.877289,352.233032 226.419022,353.584381 
	C232.877563,354.741638 239.170685,353.945770 244.618591,349.216400 
	C244.821503,345.645081 244.923080,342.394867 245.381714,339.152466 
	C250.640701,341.435059 255.542648,343.709778 260.807709,346.152985 
	C260.483673,344.028503 260.267822,342.613251 260.051971,341.197968 
M183.797668,326.390472 
	C183.793411,326.785522 183.789169,327.180542 183.784912,327.575592 
	C183.948868,327.577087 184.255295,327.589630 184.256149,327.578552 
	C184.286514,327.185364 184.288254,326.790009 183.797668,326.390472 
z"/>
<path fill="#050505" opacity="1.000000" stroke="none" 
	d="
M442.178192,177.849564 
	C437.978058,178.564636 436.101227,176.892776 434.910950,173.333237 
	C433.179962,168.156418 430.902985,163.162186 428.762329,157.850647 
	C420.389099,157.850647 412.073944,157.746674 403.767334,157.966827 
	C402.571289,157.998535 400.870575,159.341003 400.338684,160.504471 
	C398.203918,165.174057 396.627136,170.102524 394.417969,174.731934 
	C393.759308,176.112183 391.794861,177.524719 390.280487,177.709839 
	C386.718475,178.145248 383.067078,177.849335 378.908936,177.849335 
	C382.406555,169.091034 385.698151,160.795593 389.030273,152.516479 
	C394.913116,137.899780 400.909943,123.327919 406.644592,108.653481 
	C407.829224,105.622162 409.133820,104.271675 412.648163,104.368004 
	C421.684967,104.615730 421.685944,104.408638 425.140869,112.978020 
	C433.753448,134.340195 442.370789,155.700439 451.304077,177.849564 
	C448.050140,177.849564 445.339752,177.849564 442.178192,177.849564 
M422.421722,142.130722 
	C420.119904,136.391312 417.818054,130.651901 415.068207,123.795456 
	C412.065216,131.239487 409.511536,137.569672 406.715485,144.500702 
	C412.134094,144.500702 416.898407,144.539291 421.659302,144.429214 
	C422.050476,144.420181 422.418304,143.400284 422.421722,142.130722 
z"/>
<path fill="#F2F4F7" opacity="1.000000" stroke="none" 
	d="
M118.566559,356.964905 
	C118.388214,356.885651 118.243362,356.765930 118.099976,356.077026 
	C117.032028,354.357971 115.996124,353.167542 114.960220,351.977142 
	C114.960220,351.977142 115.005814,351.997620 115.000381,351.711304 
	C114.652687,350.937195 114.310425,350.449371 113.968155,349.961548 
	C113.968155,349.961548 114.006889,349.992676 113.949059,349.694763 
	C113.246201,348.922516 112.601173,348.448212 111.956146,347.973938 
	C111.956139,347.973938 112.004791,347.998016 111.989052,347.670349 
	C111.300827,346.552277 110.628334,345.761932 109.955841,344.971588 
	C109.955841,344.971588 110.004684,344.998505 110.001038,344.614288 
	C109.965401,343.135559 109.933411,342.041016 110.167778,340.743042 
	C116.789078,333.560486 125.150787,330.229218 134.205017,327.703552 
	C134.996796,327.511444 135.495422,327.239746 136.361633,326.972626 
	C137.456299,326.880829 138.183426,326.784454 139.209564,326.758789 
	C140.005661,326.540955 140.502731,326.252380 141.324097,325.968079 
	C142.074799,325.904633 142.501190,325.836884 143.288147,325.839874 
	C144.127670,325.827271 144.606644,325.743927 145.316101,325.730164 
	C145.546600,325.799744 145.996307,325.971924 145.990753,326.335785 
	C145.500534,327.959961 145.015869,329.220306 144.447952,330.697113 
	C148.317291,331.522064 151.794205,332.263367 154.763138,332.896332 
	C156.047546,334.792877 157.251877,336.571167 158.556290,338.497223 
	C157.614044,339.035583 156.621826,339.595367 155.636322,340.166748 
	C150.307953,343.256073 149.892639,345.613037 154.049149,350.003845 
	C154.713181,350.705292 155.840057,350.968628 156.752960,351.434509 
	C156.921600,350.412872 157.034500,349.377960 157.274124,348.373260 
	C157.527512,347.310852 157.901581,346.277252 157.992554,345.981110 
	C160.586746,347.261322 162.507217,348.209045 164.529694,349.207092 
	C163.871292,349.741058 163.085114,350.378693 161.969742,351.283295 
	C163.397537,351.988159 164.448196,352.421570 165.406906,353.005829 
	C166.250015,353.519623 166.990219,354.202271 168.351883,355.256165 
	C165.324493,355.903839 163.186340,356.361298 161.084351,356.811005 
	C165.597931,360.027039 169.478195,362.791809 173.890015,365.935333 
	C173.622269,363.625916 173.446289,362.108154 173.270309,360.590363 
	C173.856522,360.437622 174.442734,360.284882 175.028946,360.132172 
	C175.700897,362.847168 176.003204,365.731750 177.149048,368.229340 
	C178.288498,370.712982 180.275650,372.807678 181.891068,375.072937 
	C181.599136,375.242340 181.307190,375.411743 181.015259,375.581146 
	C179.308838,374.706940 177.602417,373.832764 175.682755,372.849335 
	C175.682755,376.265320 175.682755,378.833313 175.682755,381.675964 
	C178.185074,381.675964 180.745682,381.675964 182.923752,381.675964 
	C183.963348,384.496826 184.980850,387.257690 185.571136,390.039856 
	C171.419724,388.671021 158.451111,384.808899 146.450272,377.963409 
	C140.874496,374.782867 135.458984,371.321350 129.970810,367.987213 
	C129.970810,367.987213 130.006378,367.999298 130.021103,367.675201 
	C129.345886,366.896362 128.655960,366.441589 127.966019,365.986816 
	C127.966019,365.986847 128.002884,365.995239 128.005981,365.665222 
	C125.329231,362.885620 122.649368,360.436096 119.969505,357.986542 
	C119.969505,357.986542 120.006035,357.996521 119.896683,357.703430 
	C119.380402,357.261841 118.973480,357.113373 118.566559,356.964905 
z"/>
<path fill="#089CE4" opacity="1.000000" stroke="none" 
	d="
M270.139404,360.331299 
	C275.176941,352.475372 280.344025,344.961731 285.760376,337.217041 
	C301.260803,339.711365 314.713959,345.714233 324.916870,358.790527 
	C326.801697,362.544464 326.473541,365.431580 324.097443,368.055939 
	C324.073944,368.384583 323.944214,368.663940 323.048035,368.910095 
	C316.051117,368.476288 309.718689,367.942932 303.375732,367.612946 
	C300.373657,367.456818 297.197296,367.113190 294.370728,367.868286 
	C288.729889,369.375183 286.481079,373.820007 288.446838,378.272461 
	C290.416931,382.734772 294.927094,383.899933 300.184113,381.287445 
	C307.721283,377.541840 315.252838,373.784882 322.786774,370.032745 
	C323.845734,372.821686 325.277161,375.531952 325.886566,378.415894 
	C327.179932,384.536743 323.970825,388.106781 317.697968,387.750153 
	C315.228119,387.609741 312.787292,386.959473 310.157471,386.511414 
	C309.822906,389.181000 309.734650,392.007812 309.076935,394.695282 
	C307.669800,400.444977 303.576202,402.811859 298.675385,399.712830 
	C293.584991,396.493958 288.337494,392.558716 285.051208,387.665710 
	C279.355103,379.184570 275.117981,369.723572 270.139404,360.331299 
z"/>
<path fill="#089CE4" opacity="1.000000" stroke="none" 
	d="
M236.967804,196.568481 
	C230.740189,195.132599 224.764465,193.328049 218.721680,191.786392 
	C213.495728,190.453186 208.193588,189.418549 202.611435,188.055954 
	C201.336548,182.844147 199.989197,177.865219 199.505188,172.803726 
	C198.788940,165.313507 196.514969,158.566376 191.167267,151.931686 
	C194.121613,150.296417 196.610519,148.232605 199.450302,147.462234 
	C214.012924,143.511719 233.196854,146.419830 243.286133,163.499771 
	C250.315353,175.399368 248.178696,186.985733 236.967804,196.568481 
z"/>
<path fill="#755A50" opacity="1.000000" stroke="none" 
	d="
M222.045715,395.783752 
	C223.144684,405.526855 224.243652,415.269958 225.224533,423.966248 
	C236.726212,423.966248 247.904648,423.955200 259.083069,423.971619 
	C263.591583,423.978241 267.871216,424.807800 270.253357,429.139435 
	C272.386993,433.019226 273.245850,437.907074 269.844330,440.770935 
	C266.265778,443.783783 261.271149,446.505341 256.752960,446.752441 
	C242.797775,447.515656 228.774490,447.083618 214.778519,446.987915 
	C212.999847,446.975769 211.165222,446.372253 209.461899,445.752930 
	C204.221848,443.847595 203.098907,439.443909 207.368301,435.854523 
	C210.216354,433.460175 210.305267,431.377869 209.467682,428.118469 
	C207.069351,418.785797 205.090240,409.345398 203.373627,399.518921 
	C209.882538,397.988251 215.964127,396.885986 222.045715,395.783752 
z"/>
<path fill="#755A50" opacity="1.000000" stroke="none" 
	d="
M147.027618,389.722839 
	C141.421524,397.295624 135.815430,404.868378 130.655670,411.838257 
	C140.426804,418.616394 149.988876,425.030457 159.296951,431.794067 
	C164.334946,435.454834 165.207047,439.984192 162.635056,444.887604 
	C159.999756,449.911713 155.332489,451.874603 149.539032,449.819244 
	C146.135162,448.611664 142.758453,446.973511 139.810150,444.901947 
	C130.840485,438.599548 122.015831,432.083221 113.292068,425.443481 
	C110.957253,423.666382 108.828941,421.380341 107.237633,418.919434 
	C104.829720,415.195679 106.339310,412.478149 110.450821,410.935120 
	C112.369919,410.214905 114.421936,408.670410 115.441689,406.929962 
	C120.726082,397.911102 125.696548,388.708313 131.245178,379.381989 
	C136.818497,382.703857 141.923050,386.213348 147.027618,389.722839 
z"/>
<path fill="#54C9E8" opacity="1.000000" stroke="none" 
	d="
M145.996307,325.971924 
	C145.996307,325.971924 145.546600,325.799744 145.256622,325.448761 
	C144.551437,324.540955 144.136246,323.984131 143.324615,322.895599 
	C143.128540,324.314606 143.028061,325.041840 142.927582,325.769104 
	C142.501190,325.836884 142.074799,325.904633 141.288727,325.666748 
	C140.483688,325.082825 140.038315,324.804565 139.592926,324.526306 
	C139.365463,325.246857 139.138000,325.967468 138.910538,326.688049 
	C138.183426,326.784454 137.456299,326.880829 136.210297,326.755371 
	C135.098221,326.897003 134.505035,327.260468 133.911865,327.623932 
	C125.150787,330.229218 116.789078,333.560486 109.824661,340.760010 
	C108.757523,341.021027 108.299850,341.061615 107.842163,341.102234 
	C104.908340,334.680878 101.974518,328.259552 98.963776,321.473328 
	C113.486519,315.453278 123.350937,305.715424 126.463348,289.348724 
	C128.980652,288.981476 130.987411,288.981476 133.786560,288.981476 
	C129.380859,292.428284 129.558853,297.798920 132.765198,299.846466 
	C135.523300,301.607727 137.654587,304.350555 140.063034,306.659393 
	C139.553986,307.230652 139.044937,307.801910 138.535889,308.373169 
	C137.045853,307.326599 135.555801,306.280029 134.126251,305.275940 
	C134.126251,306.684998 134.126251,308.307404 134.126251,310.441498 
	C139.462830,308.537842 138.719604,312.940796 139.548126,315.708588 
	C143.161606,316.497498 146.583023,317.244476 150.239624,318.145935 
	C153.492142,319.874969 156.509430,321.449463 160.562943,323.564697 
	C155.858994,323.564697 152.514145,323.439331 149.191711,323.656738 
	C148.403992,323.708252 147.691498,324.909546 146.708099,325.681183 
	C146.313278,325.844238 146.154785,325.908081 145.996307,325.971924 
z"/>
<path fill="#BF3B13" opacity="1.000000" stroke="none" 
	d="
M395.131104,323.059082 
	C402.133484,332.244476 401.174866,341.407166 395.151794,350.630035 
	C385.807617,364.938354 366.169739,373.937775 350.556549,371.076752 
	C345.118469,370.080292 340.557281,367.703400 336.962219,362.672363 
	C335.885529,360.065430 334.964905,358.100250 334.041382,355.689453 
	C334.211151,353.108246 334.106842,350.906219 334.600555,348.847595 
	C338.378906,333.092865 357.047699,318.763977 374.001343,317.851135 
	C381.214935,317.462738 387.696198,319.295776 394.169464,321.875214 
	C394.169464,321.875214 394.092133,321.943878 394.134705,322.184265 
	C394.495239,322.636108 394.813171,322.847595 395.131104,323.059082 
M343.011566,359.978546 
	C343.011566,359.978546 343.029785,359.892487 343.174774,360.449097 
	C343.501099,360.608215 343.827423,360.767303 344.047668,360.937866 
	C344.047668,360.937866 344.060547,360.831879 344.186646,361.535828 
	C346.758392,362.957886 349.173157,364.960510 351.928009,365.705414 
	C366.950989,369.767639 388.413727,358.089569 392.844940,343.095062 
	C393.912048,339.484161 392.536743,335.151489 391.976044,330.492096 
	C389.357758,328.362396 387.063232,325.352783 384.066986,324.250336 
	C368.386475,318.480988 344.605591,331.248505 340.794098,347.569214 
	C340.012878,350.914276 341.563324,354.803864 342.217834,359.084656 
	C342.511475,359.386414 342.805115,359.688171 343.011566,359.978546 
z"/>
<path fill="#6DD2EF" opacity="1.000000" stroke="none" 
	d="
M150.004425,317.991455 
	C146.583023,317.244476 143.161606,316.497498 139.548126,315.708588 
	C138.719604,312.940796 139.462830,308.537842 134.126251,310.441498 
	C134.126251,308.307404 134.126251,306.684998 134.126251,305.275940 
	C135.555801,306.280029 137.045853,307.326599 138.535889,308.373169 
	C139.044937,307.801910 139.553986,307.230652 140.063034,306.659393 
	C137.654587,304.350555 135.523300,301.607727 132.765198,299.846466 
	C129.558853,297.798920 129.380859,292.428284 133.786560,288.981476 
	C130.987411,288.981476 128.980652,288.981476 126.568069,288.965118 
	C126.345993,270.745209 117.237701,258.074066 102.100891,248.614166 
	C102.884926,247.126526 103.869492,245.897583 105.037270,244.378128 
	C108.440964,245.344971 111.661446,246.602325 114.777039,247.818726 
	C110.663658,253.994812 119.706718,253.191895 119.067932,257.582458 
	C120.419403,255.577194 121.770874,253.571915 123.282776,251.328613 
	C125.484253,252.168533 128.100174,253.166595 131.329269,254.398605 
	C128.914764,256.398804 123.869568,257.653473 129.521164,260.819977 
	C129.777054,260.963348 128.852066,263.214417 128.163055,265.546783 
	C126.848434,263.229126 126.160873,262.016968 125.175385,260.279572 
	C124.425148,261.158447 123.789070,261.903625 123.152985,262.648773 
	C124.482315,263.755524 125.687111,265.562134 127.166550,265.825439 
	C130.392776,266.399597 131.177933,267.638367 129.559372,269.934479 
	C130.732101,270.599792 131.607864,271.096680 132.483643,271.593536 
	C132.460907,272.179443 132.438187,272.765381 132.415451,273.351288 
	C133.799957,272.296204 135.184464,271.241119 136.835876,269.982635 
	C139.506195,273.792023 140.963562,277.516907 136.915970,281.835449 
	C135.534393,282.678925 134.769821,283.342651 134.025253,284.302612 
	C134.363113,285.063049 134.680939,285.527252 135.003433,286.006714 
	C135.008087,286.021973 135.018829,286.052032 135.016541,286.447693 
	C134.626282,288.698273 134.238312,290.553192 133.729034,292.988129 
	C135.440369,292.988129 137.217133,292.988129 138.996140,293.321594 
	C138.993790,294.099670 138.989182,294.544220 138.821930,295.084259 
	C138.773071,295.453156 138.886841,295.726562 139.013214,296.240479 
	C139.142944,296.756714 139.260056,297.032471 139.377167,297.308228 
	C139.501038,297.221252 139.624893,297.134277 139.748749,297.047302 
	C139.498962,296.698181 139.249176,296.349091 139.000610,295.754028 
	C139.001846,295.508087 139.016327,295.016327 139.407501,295.009674 
	C141.971146,295.984955 145.467407,296.491821 146.027527,298.052429 
	C147.044922,300.887177 146.316132,304.348633 146.316132,307.528564 
	C147.616089,308.202515 149.341446,309.097046 151.301575,310.113251 
	C152.354309,308.376343 153.531311,306.434418 154.585846,304.694519 
	C156.326096,304.694519 157.976990,304.694519 160.142380,304.694519 
	C156.296082,309.281128 150.394791,311.596527 150.004425,317.991455 
M148.029144,312.216949 
	C148.146149,311.669495 148.263153,311.122040 148.380173,310.574585 
	C148.089828,310.579254 147.549500,310.559631 147.546310,310.592224 
	C147.491028,311.161133 147.501587,311.736481 148.029144,312.216949 
M131.181732,285.029633 
	C131.275848,285.436768 131.369980,285.843872 131.464111,286.251007 
	C131.584076,286.161163 131.815369,286.056244 131.805603,285.983887 
	C131.749771,285.570557 131.636581,285.164978 131.181732,285.029633 
M109.406250,248.479538 
	C109.406250,248.479538 109.518280,248.410233 109.406250,248.479538 
M122.589554,259.514954 
	C122.589554,259.514954 122.475609,259.583740 122.589554,259.514954 
z"/>
<path fill="#80D9F4" opacity="1.000000" stroke="none" 
	d="
M147.439148,389.764038 
	C141.923050,386.213348 136.818497,382.703857 131.405060,379.070007 
	C128.900848,375.767303 127.986588,372.438263 129.935089,368.381836 
	C135.458984,371.321350 140.874496,374.782867 146.450272,377.963409 
	C158.451111,384.808899 171.419724,388.671021 186.002518,390.089417 
	C190.912201,390.303040 194.963318,390.488434 199.420166,390.727600 
	C205.369507,389.991669 211.145859,389.932709 216.407318,388.257080 
	C226.744492,384.965057 236.795349,380.773987 247.000366,376.997528 
	C247.036072,377.040192 247.107819,377.125275 247.107819,377.125275 
	C242.287903,379.792419 237.535355,382.593414 232.618698,385.068359 
	C230.278687,386.246277 228.011383,386.662506 227.408051,390.117950 
	C227.065430,392.080261 224.220078,393.605530 222.273773,395.555664 
	C215.964127,396.885986 209.882538,397.988251 203.345215,399.119263 
	C199.299667,399.049072 196.579269,397.790619 195.063782,394.189819 
	C194.647125,393.199799 193.024170,392.362366 191.819199,392.114868 
	C181.372238,389.969055 170.905319,387.913147 160.411377,386.012421 
	C159.131058,385.780518 157.633392,386.550873 156.276215,386.981934 
	C153.453583,387.878540 150.657639,388.859161 147.439148,389.764038 
z"/>
<path fill="#193039" opacity="1.000000" stroke="none" 
	d="
M322.913147,369.783722 
	C315.252838,373.784882 307.721283,377.541840 300.184113,381.287445 
	C294.927094,383.899933 290.416931,382.734772 288.446838,378.272461 
	C286.481079,373.820007 288.729889,369.375183 294.370728,367.868286 
	C297.197296,367.113190 300.373657,367.456818 303.375732,367.612946 
	C309.718689,367.942932 316.051117,368.476288 322.821442,368.972839 
	C323.183197,369.191193 323.111359,369.362946 322.913147,369.783722 
z"/>
<path fill="#F58516" opacity="1.000000" stroke="none" 
	d="
M394.119080,321.535706 
	C387.696198,319.295776 381.214935,317.462738 374.001343,317.851135 
	C357.047699,318.763977 338.378906,333.092865 334.600555,348.847595 
	C334.106842,350.906219 334.211151,353.108246 333.832764,355.703003 
	C333.627075,356.162170 333.229126,356.037445 333.229126,356.037445 
	C329.856201,346.561859 333.378632,338.500732 339.255005,331.569244 
	C349.489136,319.497559 362.607483,313.048859 378.756561,313.963409 
	C384.756989,314.303253 390.120575,316.339966 394.119080,321.535706 
z"/>
<path fill="#193039" opacity="1.000000" stroke="none" 
	d="
M332.908569,356.262329 
	C333.229126,356.037445 333.627075,356.162170 333.835693,356.148621 
	C334.964905,358.100250 335.885529,360.065430 336.789368,362.356049 
	C332.796173,364.474884 328.819702,366.268341 324.470337,368.058868 
	C326.473541,365.431580 326.801697,362.544464 325.167145,359.066559 
	C327.614319,357.977448 330.101166,357.232330 332.908569,356.262329 
z"/>
<path fill="#80D9F4" opacity="1.000000" stroke="none" 
	d="
M120.031754,358.321411 
	C122.649368,360.436096 125.329231,362.885620 128.011444,365.683289 
	C125.373871,363.573059 122.733940,361.114685 120.031754,358.321411 
z"/>
<path fill="#80D9F4" opacity="1.000000" stroke="none" 
	d="
M253.056213,373.065369 
	C251.309143,374.417572 249.562088,375.769806 247.461426,377.123657 
	C247.107819,377.125275 247.036072,377.040192 247.144043,376.698334 
	C249.163239,375.231659 251.074463,374.106842 253.003265,373.002930 
	C253.020828,373.023834 253.056213,373.065369 253.056213,373.065369 
z"/>
<path fill="#80D9F4" opacity="1.000000" stroke="none" 
	d="
M115.024887,352.304688 
	C115.996124,353.167542 117.032028,354.357971 118.050949,355.943207 
	C117.052490,355.102783 116.071030,353.867523 115.024887,352.304688 
z"/>
<path fill="#80D9F4" opacity="1.000000" stroke="none" 
	d="
M107.887589,341.435211 
	C108.299850,341.061615 108.757523,341.021027 109.558319,340.963440 
	C109.933411,342.041016 109.965401,343.135559 110.009369,344.640930 
	C109.325233,343.957245 108.629128,342.862701 107.887589,341.435211 
z"/>
<path fill="#80D9F4" opacity="1.000000" stroke="none" 
	d="
M110.019966,345.285492 
	C110.628334,345.761932 111.300827,346.552277 111.997475,347.696136 
	C111.375786,347.232880 110.729935,346.416138 110.019966,345.285492 
z"/>
<path fill="#80D9F4" opacity="1.000000" stroke="none" 
	d="
M112.023026,348.288574 
	C112.601173,348.448212 113.246201,348.922516 113.958481,349.717712 
	C113.380455,349.560150 112.735176,349.081696 112.023026,348.288574 
z"/>
<path fill="#80D9F4" opacity="1.000000" stroke="none" 
	d="
M128.079056,366.263580 
	C128.655960,366.441589 129.345886,366.896362 130.024384,367.693726 
	C129.405975,367.537659 128.799026,367.039001 128.079056,366.263580 
z"/>
<path fill="#80D9F4" opacity="1.000000" stroke="none" 
	d="
M255.037964,372.102844 
	C254.577759,372.445618 254.117554,372.788391 253.356781,373.098267 
	C253.056213,373.065369 253.020828,373.023834 253.116364,372.748352 
	C253.809753,372.063690 254.407623,371.654541 255.010071,371.459900 
	C255.014648,371.674408 255.037949,372.102844 255.037964,372.102844 
z"/>
<path fill="#80D9F4" opacity="1.000000" stroke="none" 
	d="
M113.972839,350.274353 
	C114.310425,350.449371 114.652687,350.937195 115.006531,351.735535 
	C114.671242,351.559784 114.324387,351.073456 113.972839,350.274353 
z"/>
<path fill="#80D9F4" opacity="1.000000" stroke="none" 
	d="
M118.784744,357.180634 
	C118.973480,357.113373 119.380402,357.261841 119.904373,357.720764 
	C119.681931,357.819550 119.342430,357.607971 118.784744,357.180634 
z"/>
<path fill="#7ED8F3" opacity="1.000000" stroke="none" 
	d="
M255.283447,372.026245 
	C255.037949,372.102844 255.014648,371.674408 255.218582,371.335388 
	C255.422516,370.996399 255.897705,370.903503 255.897705,370.903503 
	C255.897705,370.903503 256.042877,371.045654 256.117004,371.119629 
	C255.970383,371.445618 255.749649,371.697632 255.283447,372.026245 
z"/>
<path fill="#F58516" opacity="1.000000" stroke="none" 
	d="
M395.074158,322.765350 
	C394.813171,322.847595 394.495239,322.636108 394.137024,322.132568 
	C394.403564,322.050903 394.710358,322.261261 395.074158,322.765350 
z"/>
<path fill="#78D6F1" opacity="1.000000" stroke="none" 
	d="
M134.005219,284.006378 
	C134.769821,283.342651 135.534393,282.678925 136.655045,282.016235 
	C137.257141,282.813446 137.503159,283.609558 137.918762,285.028015 
	C139.074356,286.421631 140.060379,287.192902 141.046402,287.964203 
	C141.280777,287.692383 141.515137,287.420563 141.749512,287.148743 
	C141.166260,286.432068 140.583008,285.715424 139.999771,284.998779 
	C143.387543,282.043304 146.644623,281.601746 150.260437,284.888855 
	C152.776337,287.176056 155.754150,288.955170 158.918854,290.944611 
	C162.411743,295.109161 165.511398,299.290344 168.744171,303.776886 
	C166.260666,306.171875 161.924454,307.568115 163.691895,311.974640 
	C164.834763,314.824005 166.966721,318.093048 169.544540,319.348694 
	C172.947495,321.006226 173.131073,323.149567 172.589111,326.358002 
	C170.392761,326.443146 168.609131,326.039429 166.815063,325.985992 
	C160.193375,325.788605 153.568253,325.707062 146.944397,325.581970 
	C147.691498,324.909546 148.403992,323.708252 149.191711,323.656738 
	C152.514145,323.439331 155.858994,323.564697 160.562943,323.564697 
	C156.509430,321.449463 153.492142,319.874969 150.239624,318.145966 
	C150.394791,311.596527 156.296082,309.281128 160.142380,304.694519 
	C157.976990,304.694519 156.326096,304.694519 154.585846,304.694519 
	C153.531311,306.434418 152.354309,308.376343 151.301575,310.113251 
	C149.341446,309.097046 147.616089,308.202515 146.316132,307.528564 
	C146.316132,304.348633 147.044922,300.887177 146.027527,298.052429 
	C145.467407,296.491821 141.971146,295.984955 139.399872,295.002075 
	C139.001083,295.001129 138.984589,294.988800 138.984589,294.988800 
	C138.989182,294.544220 138.993790,294.099670 139.215179,293.215332 
	C139.704605,292.577423 139.891800,292.317688 140.364014,292.039307 
	C142.650940,292.651306 144.567429,293.220306 146.483917,293.789307 
	C146.617661,292.860748 146.751389,291.932220 146.885132,291.003662 
	C144.589600,291.003662 142.294083,291.003662 139.601517,291.007202 
	C134.791946,291.904755 136.896881,287.297363 135.018829,286.052032 
	C135.018829,286.052032 135.008087,286.021973 134.983215,285.710907 
	C134.640625,284.935364 134.322922,284.470856 134.005219,284.006378 
z"/>
<path fill="#6DD2EF" opacity="1.000000" stroke="none" 
	d="
M139.666504,284.997925 
	C140.583008,285.715424 141.166260,286.432068 141.749512,287.148743 
	C141.515137,287.420563 141.280777,287.692383 141.046402,287.964203 
	C140.060379,287.192902 139.074356,286.421631 138.044250,285.320312 
	C138.444534,284.992523 138.888901,284.994781 139.666504,284.997925 
z"/>
<path fill="#755A50" opacity="1.000000" stroke="none" 
	d="
M244.517242,349.537476 
	C239.170685,353.945770 232.877563,354.741638 226.419022,353.584381 
	C218.877289,352.233032 212.505920,348.342743 207.396713,342.659515 
	C200.826416,335.351074 200.082748,326.076874 205.157654,316.578003 
	C209.892273,311.412354 214.597504,306.690308 221.427139,305.131104 
	C232.282074,302.652985 242.049606,306.816711 248.615234,317.848785 
	C252.907776,325.061432 255.944702,333.021332 259.797974,340.922241 
	C260.267822,342.613251 260.483673,344.028503 260.807709,346.152985 
	C255.542648,343.709778 250.640701,341.435059 245.228729,338.834900 
	C234.732620,333.604767 224.746536,328.700104 214.202835,323.521576 
	C215.971054,335.968964 230.708282,348.132477 244.517242,349.537476 
z"/>
<path fill="#010304" opacity="1.000000" stroke="none" 
	d="
M215.764893,250.082352 
	C224.785843,257.193268 227.681046,267.899963 223.855057,278.978210 
	C220.002762,290.132538 209.988586,298.346222 199.854660,298.663513 
	C190.228622,298.964905 181.382843,291.362061 180.176971,281.026184 
	C178.733459,268.653442 182.999298,258.371124 193.402084,251.262070 
	C200.291306,246.554123 207.790863,245.418610 215.764893,250.082352 
M204.343231,262.242493 
	C203.517227,269.280731 208.006302,274.142700 213.802917,272.431000 
	C217.578156,271.316223 219.772675,268.707306 219.782806,264.782898 
	C219.792282,261.112732 217.905701,258.269836 214.289230,257.314362 
	C210.165649,256.224915 206.700409,257.385406 204.343231,262.242493 
z"/>
<path fill="#010304" opacity="1.000000" stroke="none" 
	d="
M260.664917,318.146545 
	C255.675507,305.019562 256.943146,292.880035 265.275085,282.010193 
	C273.740326,270.966400 286.841949,272.884338 291.739716,285.884979 
	C296.371552,298.179749 294.317139,309.948090 286.291748,320.202942 
	C278.204956,330.536133 267.763245,329.599152 260.664917,318.146545 
M275.060730,293.437103 
	C276.308044,296.555054 278.467316,298.410645 281.946136,297.693085 
	C285.607849,296.937744 288.285675,292.445587 287.682678,288.346100 
	C287.173126,284.882019 285.333344,282.426300 281.681549,282.091370 
	C278.288086,281.780121 275.127197,285.350525 274.653778,289.765381 
	C274.550598,290.727509 274.807037,291.728241 275.060730,293.437103 
z"/>
<path fill="#F7F9FB" opacity="1.000000" stroke="none" 
	d="
M146.708099,325.681183 
	C153.568253,325.707062 160.193375,325.788605 166.815063,325.985992 
	C168.609131,326.039429 170.392761,326.443146 172.585419,326.768005 
	C173.726868,326.916779 174.464096,326.983643 175.599304,327.025879 
	C175.997284,327.001282 175.917450,327.058655 175.917450,327.058655 
	C176.071152,331.530121 176.224854,336.001587 176.659302,341.078613 
	C177.034637,342.112152 177.129242,342.540100 177.223831,342.968079 
	C181.508377,356.545135 191.648621,363.887085 204.689774,369.031189 
	C206.348770,372.555603 204.658661,374.431732 202.680679,376.264099 
	C201.414673,377.436890 200.264069,378.734283 199.061707,379.975830 
	C200.479492,381.014648 201.897293,382.053497 203.936646,383.547760 
	C203.091217,384.585205 201.990936,385.796112 201.057236,387.124115 
	C200.275284,388.236328 199.687927,389.485352 199.014404,390.673828 
	C194.963318,390.488434 190.912201,390.303040 186.429718,390.068115 
	C184.980850,387.257690 183.963348,384.496826 182.923752,381.675964 
	C180.745682,381.675964 178.185074,381.675964 175.682755,381.675964 
	C175.682755,378.833313 175.682755,376.265320 175.682755,372.849335 
	C177.602417,373.832764 179.308838,374.706940 181.015259,375.581146 
	C181.307190,375.411743 181.599136,375.242340 181.891068,375.072937 
	C180.275650,372.807678 178.288498,370.712982 177.149048,368.229340 
	C176.003204,365.731750 175.700897,362.847168 175.028946,360.132172 
	C174.442734,360.284882 173.856522,360.437622 173.270309,360.590363 
	C173.446289,362.108154 173.622269,363.625916 173.890015,365.935333 
	C169.478195,362.791809 165.597931,360.027039 161.084351,356.811005 
	C163.186340,356.361298 165.324493,355.903839 168.351883,355.256165 
	C166.990219,354.202271 166.250015,353.519623 165.406906,353.005829 
	C164.448196,352.421570 163.397537,351.988159 161.969742,351.283295 
	C163.085114,350.378693 163.871292,349.741058 164.529694,349.207092 
	C162.507217,348.209045 160.586746,347.261322 157.992554,345.981110 
	C157.901581,346.277252 157.527512,347.310852 157.274124,348.373260 
	C157.034500,349.377960 156.921600,350.412872 156.752960,351.434509 
	C155.840057,350.968628 154.713181,350.705292 154.049149,350.003845 
	C149.892639,345.613037 150.307953,343.256073 155.636322,340.166748 
	C156.621826,339.595367 157.614044,339.035583 158.556290,338.497223 
	C157.251877,336.571167 156.047546,334.792877 154.763138,332.896332 
	C151.794205,332.263367 148.317291,331.522064 144.447952,330.697113 
	C145.015869,329.220306 145.500534,327.959961 145.990753,326.335785 
	C146.154785,325.908081 146.313278,325.844238 146.708099,325.681183 
z"/>
<path fill="#FEFDFD" opacity="1.000000" stroke="none" 
	d="
M199.420166,390.727600 
	C199.687927,389.485352 200.275284,388.236328 201.057236,387.124115 
	C201.990936,385.796112 203.091217,384.585205 203.936646,383.547760 
	C201.897293,382.053497 200.479492,381.014648 199.061707,379.975830 
	C200.264069,378.734283 201.414673,377.436890 202.680679,376.264099 
	C204.658661,374.431732 206.348770,372.555603 204.991226,369.209717 
	C211.203491,368.772491 217.546539,369.462097 223.615402,368.471710 
	C231.096848,367.250854 237.513260,363.285797 242.710159,355.804108 
	C247.364441,360.906830 251.617416,365.569611 255.884048,370.567932 
	C255.897705,370.903503 255.422516,370.996399 255.214005,371.120911 
	C254.407623,371.654541 253.809753,372.063690 253.098785,372.727448 
	C251.074463,374.106842 249.163239,375.231659 247.108337,376.655670 
	C236.795349,380.773987 226.744492,384.965057 216.407318,388.257080 
	C211.145859,389.932709 205.369507,389.991669 199.420166,390.727600 
z"/>
<path fill="#F78864" opacity="1.000000" stroke="none" 
	d="
M244.618591,349.216400 
	C230.708282,348.132477 215.971054,335.968964 214.202835,323.521576 
	C224.746536,328.700104 234.732620,333.604767 244.871674,338.827026 
	C244.923080,342.394867 244.821503,345.645081 244.618591,349.216400 
z"/>
<path fill="#6DD2EF" opacity="1.000000" stroke="none" 
	d="
M177.569016,342.975983 
	C177.129242,342.540100 177.034637,342.112152 176.922485,341.355194 
	C178.300079,340.067627 179.695251,339.109039 181.948441,337.560944 
	C182.261093,337.560944 183.829437,337.560944 185.361603,337.560944 
	C184.654984,339.973724 184.001938,342.203552 183.685471,343.284119 
	C181.334793,343.161835 179.624496,343.072845 177.569016,342.975983 
z"/>
<path fill="#78D6F1" opacity="1.000000" stroke="none" 
	d="
M175.969254,327.041595 
	C176.744003,325.708038 177.546768,324.334167 178.349548,322.960266 
	C178.976349,323.546722 179.603165,324.133179 180.229965,324.719635 
	C179.057953,325.485321 177.885956,326.251038 176.315704,327.037689 
	C175.917450,327.058655 175.997284,327.001282 175.969254,327.041595 
z"/>
<path fill="#78D6F1" opacity="1.000000" stroke="none" 
	d="
M184.045837,326.392700 
	C184.288254,326.790009 184.286514,327.185364 184.256149,327.578552 
	C184.255295,327.589630 183.948868,327.577087 183.784912,327.575592 
	C183.789169,327.180542 183.793411,326.785522 184.045837,326.392700 
z"/>
<path fill="#F2F4F7" opacity="1.000000" stroke="none" 
	d="
M422.609375,142.490402 
	C422.418304,143.400284 422.050476,144.420181 421.659302,144.429214 
	C416.898407,144.539291 412.134094,144.500702 406.715485,144.500702 
	C409.511536,137.569672 412.065216,131.239487 415.068207,123.795456 
	C417.818054,130.651901 420.119904,136.391312 422.609375,142.490402 
z"/>
<path fill="#78D6F1" opacity="1.000000" stroke="none" 
	d="
M139.209564,326.758789 
	C139.138000,325.967468 139.365463,325.246857 139.592926,324.526306 
	C140.038315,324.804565 140.483688,325.082825 140.964432,325.662445 
	C140.502731,326.252380 140.005661,326.540955 139.209564,326.758789 
z"/>
<path fill="#78D6F1" opacity="1.000000" stroke="none" 
	d="
M143.288132,325.839844 
	C143.028061,325.041840 143.128540,324.314606 143.324615,322.895599 
	C144.136246,323.984131 144.551437,324.540955 145.026123,325.379181 
	C144.606644,325.743927 144.127670,325.827271 143.288132,325.839844 
z"/>
<path fill="#78D6F1" opacity="1.000000" stroke="none" 
	d="
M134.205017,327.703552 
	C134.505035,327.260468 135.098221,326.897003 135.842728,326.750793 
	C135.495422,327.239746 134.996796,327.511444 134.205017,327.703552 
z"/>
<path fill="#FEFDFD" opacity="1.000000" stroke="none" 
	d="
M342.039032,358.442474 
	C341.563324,354.803864 340.012878,350.914276 340.794098,347.569214 
	C344.605591,331.248505 368.386475,318.480988 384.066986,324.250336 
	C387.063232,325.352783 389.357758,328.362396 392.155640,331.262146 
	C393.256226,339.051819 390.347656,344.817108 385.773621,349.619232 
	C374.219086,361.749939 360.564331,366.771545 344.060547,360.831879 
	C344.060547,360.831879 344.047668,360.937866 344.210754,360.574585 
	C343.925812,360.105011 343.477814,359.998749 343.029785,359.892487 
	C343.029785,359.892487 343.011566,359.978546 343.088562,359.631104 
	C342.790070,359.003235 342.414551,358.722839 342.039032,358.442474 
z"/>
<path fill="#193039" opacity="1.000000" stroke="none" 
	d="
M344.123596,361.183838 
	C360.564331,366.771545 374.219086,361.749939 385.773621,349.619232 
	C390.347656,344.817108 393.256226,339.051819 392.309937,331.591461 
	C392.536743,335.151489 393.912048,339.484161 392.844940,343.095062 
	C388.413727,358.089569 366.950989,369.767639 351.928009,365.705414 
	C349.173157,364.960510 346.758392,362.957886 344.123596,361.183838 
z"/>
<path fill="#193039" opacity="1.000000" stroke="none" 
	d="
M343.102295,360.170776 
	C343.477814,359.998749 343.925812,360.105011 344.263794,360.568848 
	C343.827423,360.767303 343.501099,360.608215 343.102295,360.170776 
z"/>
<path fill="#193039" opacity="1.000000" stroke="none" 
	d="
M342.128418,358.763550 
	C342.414551,358.722839 342.790070,359.003235 343.132172,359.636780 
	C342.805115,359.688171 342.511475,359.386414 342.128418,358.763550 
z"/>
<path fill="#54C9E8" opacity="1.000000" stroke="none" 
	d="
M135.016541,286.447693 
	C136.896881,287.297363 134.791946,291.904755 139.598709,291.255310 
	C139.992950,291.499908 139.993561,291.996338 139.993561,291.996338 
	C139.891800,292.317688 139.704605,292.577423 139.212936,292.881866 
	C137.217133,292.988129 135.440369,292.988129 133.729034,292.988129 
	C134.238312,290.553192 134.626282,288.698273 135.016541,286.447693 
z"/>
<path fill="#78D6F1" opacity="1.000000" stroke="none" 
	d="
M147.763474,312.263672 
	C147.501587,311.736481 147.491028,311.161133 147.546310,310.592224 
	C147.549500,310.559631 148.089828,310.579254 148.380157,310.574585 
	C148.263153,311.122040 148.146149,311.669495 147.763474,312.263672 
z"/>
<path fill="#80D9F4" opacity="1.000000" stroke="none" 
	d="
M131.362305,284.893188 
	C131.636581,285.164978 131.749771,285.570557 131.805603,285.983887 
	C131.815369,286.056244 131.584076,286.161163 131.464111,286.251007 
	C131.369980,285.843872 131.275848,285.436768 131.362305,284.893188 
z"/>
<path fill="#78D6F1" opacity="1.000000" stroke="none" 
	d="
M138.999390,296.000000 
	C139.249176,296.349091 139.498962,296.698181 139.748749,297.047302 
	C139.624893,297.134277 139.501038,297.221252 139.377167,297.308228 
	C139.260056,297.032471 139.142944,296.756714 139.012909,296.240479 
	C139.000000,296.000000 138.999390,296.000000 138.999390,296.000000 
z"/>
<path fill="#80D9F4" opacity="1.000000" stroke="none" 
	d="
M134.025238,284.302612 
	C134.322922,284.470856 134.640625,284.935364 134.978561,285.695648 
	C134.680939,285.527252 134.363113,285.063049 134.025238,284.302612 
z"/>
<path fill="#80D9F4" opacity="1.000000" stroke="none" 
	d="
M109.462265,248.444885 
	C109.518280,248.410233 109.406250,248.479538 109.462265,248.444885 
z"/>
<path fill="#78D6F1" opacity="1.000000" stroke="none" 
	d="
M139.008698,295.008728 
	C139.016327,295.016327 139.001846,295.508087 139.000610,295.754028 
	C138.999390,296.000000 139.000000,296.000000 139.000305,296.000000 
	C138.886841,295.726562 138.773071,295.453156 138.821945,295.084259 
	C138.984589,294.988800 139.001083,295.001129 139.008698,295.008728 
z"/>
<path fill="#80D9F4" opacity="1.000000" stroke="none" 
	d="
M122.532578,259.549347 
	C122.475609,259.583740 122.589554,259.514954 122.532578,259.549347 
z"/>
<path fill="#6DD2EF" opacity="1.000000" stroke="none" 
	d="
M140.364014,292.039307 
	C139.993561,291.996338 139.992950,291.499908 139.995758,291.251770 
	C142.294083,291.003662 144.589600,291.003662 146.885132,291.003662 
	C146.751389,291.932220 146.617661,292.860748 146.483917,293.789307 
	C144.567429,293.220306 142.650940,292.651306 140.364014,292.039307 
z"/>
<path fill="#F2F4F7" opacity="1.000000" stroke="none" 
	d="
M204.555084,261.909058 
	C206.700409,257.385406 210.165649,256.224915 214.289230,257.314362 
	C217.905701,258.269836 219.792282,261.112732 219.782806,264.782898 
	C219.772675,268.707306 217.578156,271.316223 213.802917,272.431000 
	C208.006302,274.142700 203.517227,269.280731 204.555084,261.909058 
z"/>
<path fill="#F2F4F7" opacity="1.000000" stroke="none" 
	d="
M274.979309,293.074158 
	C274.807037,291.728241 274.550598,290.727509 274.653778,289.765381 
	C275.127197,285.350525 278.288086,281.780121 281.681549,282.091370 
	C285.333344,282.426300 287.173126,284.882019 287.682678,288.346100 
	C288.285675,292.445587 285.607849,296.937744 281.946136,297.693085 
	C278.467316,298.410645 276.308044,296.555054 274.979309,293.074158 
z"/>
</svg>